<svg xmlns="http://www.w3.org/2000/svg" viewBox="0 0 247.5 77.5"><path d="M124.2 60.6h-5.8V41.8H97.7v18.8h-5.8V18h5.8v19.3h20.7V18h5.8v42.6zm28.9 0c-.2-1-.3-1.8-.5-2.5-.1-.7-.2-1.5-.2-2.2-1.1 1.5-2.5 2.8-4.2 3.8s-3.6 1.5-5.6 1.5c-3.3 0-5.8-.8-7.5-2.5s-2.6-4-2.6-7 1.2-5.4 3.7-7.1c2.5-1.7 5.8-2.6 10-2.6h6.3v-3.1c0-1.9-.6-3.3-1.7-4.4-1.1-1.1-2.7-1.6-4.8-1.6-1.9 0-3.4.5-4.5 1.4-1.2.9-1.7 2.1-1.7 3.4h-5.5l-.1-.2c-.1-2.3 1-4.4 3.3-6.3 2.3-1.9 5.3-2.9 8.9-2.9 3.6 0 6.5.9 8.7 2.7s3.3 4.5 3.3 7.9v15.3c0 1.1.1 2.2.2 3.3s.3 2.1.6 3.1h-6.1zm-9.5-4.2c2.1 0 4-.5 5.7-1.6s2.8-2.3 3.3-3.7V46H146c-2.3 0-4.2.6-5.6 1.8-1.4 1.2-2.1 2.5-2.1 4.1 0 1.4.4 2.5 1.3 3.3.9.8 2.2 1.2 4 1.2zm38-22.4l-3-.2c-1.5 0-2.8.4-3.9 1.1-1 .7-1.9 1.7-2.4 3v22.6h-5.8V28.9h5.2l.6 4.6c.9-1.6 2-2.9 3.3-3.8s2.8-1.4 4.6-1.4c.4 0 .8 0 1.2.1s.7.1 1 .2l-.8 5.4zm20.6 0l-3-.2c-1.5 0-2.8.4-3.9 1.1-1 .7-1.9 1.7-2.4 3v22.6h-5.8V28.9h5.2l.6 4.6c.9-1.6 2-2.9 3.3-3.8s2.8-1.4 4.6-1.4c.4 0 .8 0 1.2.1s.7.1 1 .2l-.8 5.4zM214 20.8h-5.8v-5.9h5.8v5.9zm0 39.8h-5.8V28.9h5.8v31.7zm19.6-20l6.7-11.7h6.7l-10.3 15.7 10.6 16h-6.6l-7-12-7 12H220l10.6-16-10.3-15.7h6.7l6.6 11.7z" fill="#222"/><path d="M22.9 14.6l9.4 21.6 9-3.9-9.4-21.6c11.8-2.9 24.3 2 30.9 12.2l9.1-4C62.2 2.4 41.4-4.6 23.3 3.2S-3.8 31.1 1.5 49.5l9.1-4c-2.8-11.8 2.1-24.2 12.3-30.9zm53 13.3l-9.1 4c2.9 11.8-2 24.3-12.2 30.9l-9.4-21.6-9 3.9 9.4 21.6c-11.8 2.9-24.3-2-30.9-12.2l-9.1 4C15.4 75 36.2 82 54.3 74.2s27-27.8 21.6-46.3z" fill="#DE2B26"/></svg>